<svg width="37" height="61" viewBox="0 0 37 61" fill="none" xmlns="http://www.w3.org/2000/svg">
<path d="M9.96043 29.9231L6.129 19.5184C5.74962 18.4883 6.51768 17.3956 7.60967 17.4297C27.4476 18.0508 37.6517 24.6197 36.7228 44.3809C33.4176 30.8768 17.5647 29.9231 9.96043 29.9231Z" fill="white"/>
<path d="M4.83703 12.9729L0.82621 2.83434C0.416497 1.79873 1.1843 0.675353 2.2928 0.686019C22.3938 0.880107 36.553 1.6421 36.553 27.267C33.2477 13.7629 12.4413 12.9729 4.83703 12.9729Z" fill="white"/>
<path d="M15.2144 47.4156L11.139 36.3763C10.7608 35.3516 11.5208 34.2618 12.6074 34.2958C28.9471 34.8069 37.1449 41.1788 36.2228 60.7987C32.9175 47.2946 22.8735 47.4156 15.2144 47.4156Z" fill="white"/>
<path d="M15.2144 47.4156L11.139 36.3763C10.7608 35.3516 11.5208 34.2618 12.6074 34.2958C28.9471 34.8069 37.1449 41.1788 36.2228 60.7987C32.9175 47.2946 22.8735 47.4156 15.2144 47.4156Z" fill="white"/>
</svg>
